<?xml version="1.0" encoding="UTF-8"?>
<svg xmlns="http://www.w3.org/2000/svg" viewBox="0 0 64 64" role="img" aria-label="StudyBuddy icon">
  <defs>
    <linearGradient id="sbGrad" x1="0" y1="0" x2="1" y2="1">
      <stop offset="0%" stop-color="#10b981"/>
      <stop offset="100%" stop-color="#14b8a6"/>
    </linearGradient>
    <filter id="shadow" x="-20%" y="-20%" width="140%" height="140%">
      <feDropShadow dx="0" dy="1" stdDeviation="1" flood-color="rgba(0,0,0,0.25)"/>
    </filter>
  </defs>
  <!-- Background -->
  <rect x="4" y="4" width="56" height="56" rx="12" fill="url(#sbGrad)"/>
  <!-- Open book -->
  <g filter="url(#shadow)">
    <path d="M14 20 h18 a4 4 0 0 1 4 4 v20 a4 4 0 0 0 -4 -4 h-18z" fill="#ffffff" opacity="0.95"/>
    <path d="M50 20 h-18 a4 4 0 0 0 -4 4 v20 a4 4 0 0 1 4 -4 h18z" fill="#ffffff" opacity="0.95"/>
    <!-- Center spine -->
    <rect x="31" y="20" width="2" height="24" fill="#e5e7eb" opacity="0.8"/>
  </g>
  <!-- Checkmark -->
  <path d="M25 34 l5 5 l12 -12" fill="none" stroke="#059669" stroke-width="4" stroke-linecap="round" stroke-linejoin="round"/>
</svg>
