<?xml version="1.0" encoding="UTF-8"?>
<svg xmlns="http://www.w3.org/2000/svg" viewBox="0 0 320 80" role="img" aria-label="StudyBuddy logo">
  <defs>
    <linearGradient id="sbGrad" x1="0" y1="0" x2="1" y2="1">
      <stop offset="0%" stop-color="#667eea"/>
      <stop offset="100%" stop-color="#764ba2"/>
    </linearGradient>
  </defs>
  <!-- Icon tile -->
  <g transform="translate(8,8)">
    <rect x="0" y="0" width="64" height="64" rx="14" fill="url(#sbGrad)"/>
    <path d="M10 18 h20 a4 4 0 0 1 4 4 v24 a4 4 0 0 0 -4 -4 h-20z" fill="#ffffff" opacity="0.95"/>
    <path d="M54 18 h-20 a4 4 0 0 0 -4 4 v24 a4 4 0 0 1 4 -4 h20z" fill="#ffffff" opacity="0.95"/>
    <rect x="31" y="18" width="2" height="28" fill="#e5e7eb" opacity="0.8"/>
    <path d="M22 38 l6 6 l14 -14" fill="none" stroke="#22c55e" stroke-width="5" stroke-linecap="round" stroke-linejoin="round"/>
  </g>
  <!-- Wordmark -->
  <g font-family="Inter, system-ui, -apple-system, Segoe UI, Roboto, Helvetica, Arial, sans-serif" font-size="32" font-weight="700" fill="#111827" transform="translate(88,54)">
    <text>Study</text>
    <text x="120" fill="url(#sbGrad)">Buddy</text>
  </g>
</svg>
